/* XPM */
static char * icon32_xpm[] = {
"32 32 184 2",
"  	c None",
". 	c #A40000",
"+ 	c #AA0F0F",
"@ 	c #C45B5B",
"# 	c #D68D8D",
"$ 	c #E0A8A8",
"% 	c #E9C2C2",
"& 	c #AA1010",
"* 	c #BB4040",
"= 	c #E5B7B7",
"- 	c #FDF9F9",
"; 	c #F2DBDB",
"> 	c #DC9B9B",
", 	c #D17F7F",
"' 	c #C86666",
") 	c #B22626",
"! 	c #E5B5B5",
"~ 	c #FCF6F6",
"{ 	c #D58989",
"] 	c #B42D2D",
"^ 	c #A50303",
"/ 	c #A60505",
"( 	c #A60606",
"_ 	c #A60707",
": 	c #A60404",
"< 	c #BF4B4B",
"[ 	c #FAF0F0",
"} 	c #DEA3A3",
"| 	c #AE1E1E",
"1 	c #A70808",
"2 	c #A80A0A",
"3 	c #A80C0C",
"4 	c #A90E0E",
"5 	c #AA0E0E",
"6 	c #A80D0D",
"7 	c #A70909",
"8 	c #AF1F1F",
"9 	c #CA6B6B",
"0 	c #FCF7F7",
"a 	c #C96767",
"b 	c #A50404",
"c 	c #AA1212",
"d 	c #E0AAAA",
"e 	c #FAF2F2",
"f 	c #E7BCBC",
"g 	c #AC1616",
"h 	c #AC1515",
"i 	c #AB1414",
"j 	c #A70A0A",
"k 	c #C96868",
"l 	c #BC4444",
"m 	c #CD7373",
"n 	c #FFFFFF",
"o 	c #D99494",
"p 	c #AE1D1D",
"q 	c #AE1C1C",
"r 	c #AD1A1A",
"s 	c #AC1717",
"t 	c #BD4545",
"u 	c #A90F0F",
"v 	c #D48484",
"w 	c #DFA5A5",
"x 	c #B12525",
"y 	c #B12424",
"z 	c #B02222",
"A 	c #B02020",
"B 	c #B63232",
"C 	c #F4E0E0",
"D 	c #F8ECEC",
"E 	c #DC9C9C",
"F 	c #F9EEEE",
"G 	c #F6E6E6",
"H 	c #C86565",
"I 	c #B32A2A",
"J 	c #B22727",
"K 	c #DEA4A4",
"L 	c #B42E2E",
"M 	c #C25353",
"N 	c #BD4646",
"O 	c #FDFAFA",
"P 	c #F8EBEB",
"Q 	c #B63131",
"R 	c #B02121",
"S 	c #AF2020",
"T 	c #A80B0B",
"U 	c #AC1818",
"V 	c #AF1E1E",
"W 	c #B32929",
"X 	c #B93B3B",
"Y 	c #BA3F3F",
"Z 	c #B53030",
"` 	c #B42C2C",
" .	c #AE1B1B",
"..	c #D58A8A",
"+.	c #B22828",
"@.	c #B63434",
"#.	c #B83838",
"$.	c #BA3D3D",
"%.	c #E1ABAB",
"&.	c #FEFDFD",
"*.	c #F7EAEA",
"=.	c #FFFEFE",
"-.	c #E6B8B8",
";.	c #B63333",
">.	c #B12626",
",.	c #AD1818",
"'.	c #B42F2F",
").	c #AA1111",
"!.	c #BA3E3E",
"~.	c #BC4343",
"{.	c #BD4747",
"].	c #C66060",
"^.	c #ECCACA",
"/.	c #CC7070",
"(.	c #AB1515",
"_.	c #AE1A1A",
":.	c #B22929",
"<.	c #B83636",
"[.	c #BE4949",
"}.	c #C04E4E",
"|.	c #C15050",
"1.	c #C15151",
"2.	c #EDCDCD",
"3.	c #CE7474",
"4.	c #B83939",
"5.	c #C35757",
"6.	c #C45858",
"7.	c #CF7878",
"8.	c #EAC5C5",
"9.	c #F5E4E4",
"0.	c #BE4A4A",
"a.	c #D28181",
"b.	c #B93A3A",
"c.	c #BC4242",
"d.	c #C55D5D",
"e.	c #C65F5F",
"f.	c #C45A5A",
"g.	c #C35656",
"h.	c #D48787",
"i.	c #E5B6B6",
"j.	c #AD1919",
"k.	c #C76262",
"l.	c #C55C5C",
"m.	c #C45959",
"n.	c #D58888",
"o.	c #B83A3A",
"p.	c #BB4141",
"q.	c #BE4848",
"r.	c #C04F4F",
"s.	c #C25656",
"t.	c #D07A7A",
"u.	c #EBC8C8",
"v.	c #C04C4C",
"w.	c #C25454",
"x.	c #C25555",
"y.	c #EDCECE",
"z.	c #CE7575",
"A.	c #B52F2F",
"B.	c #B73434",
"C.	c #ECCBCB",
"D.	c #CC7171",
"E.	c #B32B2B",
"F.	c #B73636",
"G.	c #B93C3C",
"H.	c #E1AAAA",
"I.	c #FEFCFC",
"J.	c #E6B9B9",
"K.	c #B73535",
"L.	c #AB1313",
"M.	c #C04D4D",
"N.	c #D68A8A",
"O.	c #C15252",
"P.	c #FEFBFB",
"Q.	c #F3DEDE",
"R.	c #F8EAEA",
"S.	c #DD9F9F",
"T.	c #FAF1F1",
"U.	c #CA6A6A",
"V.	c #DFA4A4",
"W.	c #D48585",
"X.	c #C96969",
"Y.	c #D99696",
"Z.	c #E2AEAE",
"`.	c #E9C1C1",
"                        . . . . . . . .                         ",
"                  . . + @ # $ % % $ # @ & . .                   ",
"              . . * = - ; > , ' ' , > ; - = * . .               ",
"            . ) ! ~ { ] ^ / ( _ _ _ ( : ] { ~ ! ) .             ",
"          . < [ } | / 1 2 3 4 4 5 4 6 3 7 ( 8 } [ < .           ",
"        . 9 0 a b 1 c d e f ) g g h i c & 6 j ( k 0 9 .         ",
"      . < 0 l : j 4 m n n n o p p p q r s i & 3 _ t 0 < .       ",
"    . ) [ a : 2 u i v n n n w x x y z A | r g c 3 _ k [ ) .     ",
"    . ! } b j u i r B C n D E F G H I J y A q s c 3 ( K ! .     ",
"  . * ~ | 1 4 i r 8 y L M N O n n P Q L I ) R q g & 2 S ~ * .   ",
"  . = { / T c U V y W L B < n n n ~ X Y Z ` J R  .i 4 1 ..= .   ",
"  & - ] 1 4 h q z +.L @.#.$.%.n &.= *.=.-.;.` >.8 ,.c T '.- +   ",
". @ ; ^ 2 ).,.8 >.` B #.!.~.{.].@ ^.n n n /.Z W z q (.4 ( ; @ . ",
". # > / 3 i _.z :.Z <.$.~.[.}.|.1.2.n n n 3.!.] x | s & 1 E # . ",
". $ , ( 4 h q y I B 4.* {.}.M 5.6.7.F n 8.8.=.9.0.A ,.).2 a.$ . ",
". % ' _ 4 g p y ` ;.b.c.[.|.5.d.e.f.g.6.h.n n n i.R j.c T k % . ",
". % ' _ 5 g p x ` @.X c.0.1.6.e.k.l.g.m.n.n n n i.R _.c T k % . ",
". $ , _ 4 h p y ` ;.o.p.q.r.s.f.l.t.F n 8.u.n G v.A j.c 2 a.$ . ",
". # > ( 6 i q z I Q #.!.t < |.w.x.y.n n n z.c.A.) 8 U & 7 E # . ",
". @ ; : 3 c r A J L B.X * N 0.].l.C.n n n D.B E.y p g + 1 ; @ . ",
"  & - ] 7 & s | y I Z F.G.* H.n I.i.*.=.J.K.L +.R _.L.3 Z - +   ",
"  . = { ( 6 i r A ) ` Q F.M.n n n ~ !.c.@.A.W y | g & j N.= .   ",
"  . * ~ 8 j & g q R J Z O.q.P.n n D B.B L W y V ,.c 3 z ~ * .   ",
"    . ! } ( 3 c s q B.Q.n R.S.T.*.U.L E.+.y V r i 4 1 V.! .     ",
"    . ) [ k _ 3 c g W.n n n w W +.+.) y R | ,.i u 2 X.[ ) .     ",
"      . < 0 t _ 3 & z.n n n Y.R R A 8 p _.g c 4 2 {.0 < .       ",
"        . 9 0 k ( 2 g Z.~ `.I j._.j.U g L.& 3 1 X.0 9 .         ",
"          . < [ K S 1 T 4 & ).c c c & + 3 j z V.[ < .           ",
"            . ) ! ~ ..'.( 1 2 T T 2 7 1 Z N.~ ! ) .             ",
"              . . * = - ; E a.k k a.E ; - = * . .               ",
"                  . . + @ # $ % % $ # @ & . .                   ",
"                        . . . . . . . .                         "};
