/* XPM */
static char * default_xpm[] = {
"48 48 201 2",
"  	c None",
". 	c #A40000",
"+ 	c #A40101",
"@ 	c #AA1111",
"# 	c #B32B2B",
"$ 	c #B12525",
"% 	c #CD7474",
"& 	c #E7BDBD",
"* 	c #F4DFDF",
"= 	c #FCF7F7",
"- 	c #FFFFFF",
"; 	c #AA1212",
"> 	c #D28181",
", 	c #F0D4D4",
"' 	c #FEFCFC",
") 	c #F4E0E0",
"! 	c #EBC7C7",
"~ 	c #E2ADAD",
"{ 	c #D99494",
"] 	c #A70808",
"^ 	c #CF7878",
"/ 	c #FAF0F0",
"( 	c #FBF3F3",
"_ 	c #E1ABAB",
": 	c #C55D5D",
"< 	c #A50202",
"[ 	c #A50303",
"} 	c #C25353",
"| 	c #F5E4E4",
"1 	c #F7E9E9",
"2 	c #CA6B6B",
"3 	c #A60505",
"4 	c #A60606",
"5 	c #A60707",
"6 	c #A70909",
"7 	c #D48686",
"8 	c #FBF5F5",
"9 	c #D38484",
"0 	c #A90E0E",
"a 	c #A50404",
"b 	c #A80A0A",
"c 	c #A80B0B",
"d 	c #A80C0C",
"e 	c #A90D0D",
"f 	c #A90F0F",
"g 	c #E5B5B5",
"h 	c #F1D8D8",
"i 	c #B22727",
"j 	c #C66161",
"k 	c #C96767",
"l 	c #AF1F1F",
"m 	c #AA1010",
"n 	c #B22828",
"o 	c #E5B8B8",
"p 	c #F7EAEA",
"q 	c #F7E8E8",
"r 	c #B93A3A",
"s 	c #AC1616",
"t 	c #AC1717",
"u 	c #AB1515",
"v 	c #AB1414",
"w 	c #AB1313",
"x 	c #AB1212",
"y 	c #DA9999",
"z 	c #FCF8F8",
"A 	c #E8BFBF",
"B 	c #AE1B1B",
"C 	c #AD1A1A",
"D 	c #AD1919",
"E 	c #AD1818",
"F 	c #A70707",
"G 	c #C35757",
"H 	c #AF2020",
"I 	c #AF1E1E",
"J 	c #AE1C1C",
"K 	c #BB4040",
"L 	c #E4B4B4",
"M 	c #B22626",
"N 	c #B12424",
"O 	c #B02222",
"P 	c #B02121",
"Q 	c #AE1D1D",
"R 	c #E6B8B8",
"S 	c #CB6E6E",
"T 	c #E4B3B3",
"U 	c #FBF4F4",
"V 	c #F8EBEB",
"W 	c #DB9999",
"X 	c #B42D2D",
"Y 	c #B02323",
"Z 	c #B32929",
"` 	c #D68D8D",
" .	c #EDCDCD",
"..	c #E9C2C2",
"+.	c #E0A9A9",
"@.	c #DB9B9B",
"#.	c #B42C2C",
"$.	c #B32A2A",
"%.	c #D38585",
"&.	c #B42E2E",
"*.	c #B93B3B",
"=.	c #B63232",
"-.	c #B53030",
";.	c #B63333",
">.	c #C55E5E",
",.	c #FEFAFA",
"'.	c #B73535",
").	c #B53131",
"!.	c #B73434",
"~.	c #B83737",
"{.	c #BA3E3E",
"].	c #EAC4C4",
"^.	c #CB6D6D",
"/.	c #E1AAAA",
"(.	c #DEA3A3",
"_.	c #C45A5A",
":.	c #B83838",
"<.	c #CA6C6C",
"[.	c #F8ECEC",
"}.	c #FEFBFB",
"|.	c #CE7676",
"1.	c #E2ACAC",
"2.	c #B93C3C",
"3.	c #BA3F3F",
"4.	c #BC4242",
"5.	c #BC4444",
"6.	c #C04D4D",
"7.	c #CD7272",
"8.	c #BD4747",
"9.	c #F2DBDB",
"0.	c #C65E5E",
"a.	c #BC4343",
"b.	c #BD4646",
"c.	c #BE4949",
"d.	c #BF4B4B",
"e.	c #BF4C4C",
"f.	c #BF4D4D",
"g.	c #C86565",
"h.	c #B83939",
"i.	c #BE4A4A",
"j.	c #C04F4F",
"k.	c #C15151",
"l.	c #C15252",
"m.	c #FDFAFA",
"n.	c #F9EEEE",
"o.	c #C25454",
"p.	c #C35656",
"q.	c #DDA1A1",
"r.	c #D89393",
"s.	c #DFA7A7",
"t.	c #FFFEFE",
"u.	c #BA3D3D",
"v.	c #C35858",
"w.	c #C45B5B",
"x.	c #C55C5C",
"y.	c #E6B9B9",
"z.	c #DC9D9D",
"A.	c #EDCECE",
"B.	c #E9C1C1",
"C.	c #E2AEAE",
"D.	c #B52F2F",
"E.	c #C65F5F",
"F.	c #C76161",
"G.	c #D99595",
"H.	c #BE4848",
"I.	c #C45858",
"J.	c #E3B2B2",
"K.	c #EFD1D1",
"L.	c #DC9C9C",
"M.	c #DB9898",
"N.	c #FEFDFD",
"O.	c #DA9797",
"P.	c #EECFCF",
"Q.	c #F3DFDF",
"R.	c #CA6A6A",
"S.	c #CD7575",
"T.	c #C25252",
"U.	c #FDF9F9",
"V.	c #E7BCBC",
"W.	c #FCF6F6",
"X.	c #CE7777",
"Y.	c #E1ACAC",
"Z.	c #EAC5C5",
"`.	c #CD7171",
" +	c #D78E8E",
".+	c #BB4141",
"++	c #FBF2F2",
"@+	c #D68A8A",
"#+	c #ECC8C8",
"$+	c #E8BDBD",
"%+	c #DD9F9F",
"&+	c #E5B7B7",
"*+	c #CC7171",
"=+	c #E4B5B5",
"-+	c #E5B6B6",
";+	c #F9F0F0",
">+	c #B22929",
",+	c #E9C3C3",
"'+	c #DC9B9B",
")+	c #CC7070",
"!+	c #AD1717",
"                                      . . . . + + . . . .                                       ",
"                                . + . . . . @ # # @ . . . . + .                                 ",
"                            + . . $ % & * = - - - - = * & % $ . . +                             ",
"                        + . ; > , - - ' ) ! ~ { { ~ ! ) ' - - , > ; . +                         ",
"                    . . ] ^ / - ( _ : ; + < < [ [ [ < < ; : _ ( - / ^ ] . .                     ",
"                  + . } | - 1 2 ] < [ 3 4 5 5 ] ] ] 5 5 4 3 [ 6 2 1 - | } . +                   ",
"                + < 7 - 8 9 0 < a 4 ] 6 b c d e e e d c b 6 ] 4 a f 9 8 - 7 < +                 ",
"              . 0 g - h i < a 5 6 @ j k l m @ @ ; @ @ m f 0 e c 6 5 a n h - g 0 .               ",
"            + 0 , - o m [ 4 ] c k p - - q r s s t s s u v w @ f e c ] 4 x o - , 0 +             ",
"          + < g - y a a 5 b e $ z - - - - A B B B B B C D E s v ; f e b 5 F y - g < +           ",
"        . . 7 - o a a 5 b 0 @ G - - - - - / H H H H H l I J C E s w @ 0 b 5 F o - 7 . .         ",
"        . } - h m a 5 c 0 @ u K - - - - - L $ M $ $ $ N O P l Q C E u @ 0 c 5 w h - } .         ",
"      + ] | 8 i [ 5 b 0 ; u E B R - - - - S T U V W X n i $ Y P I B E u ; 0 b 5 Z 8 | ] +       ",
"      . ^ - 9 < 4 b 0 @ u D J l i `  ...S +.- - - - @.X #.$.n $ O l J D u @ 0 b 4 %.- ^ .       ",
"    + ; / 1 0 a ] e @ u E J H Y M Z #.&.*.8 - - - - / =.-.&.#.Z M Y H J E u @ e ] @ 1 / ; +     ",
"    . > - 2 < 5 c f w E B l Y i $.X -.;.>.- - - - - ,.r '.;.-.X $.i Y l B E w f c 5 2 - > .     ",
"  . . , ( ] a 6 e ; s C I O M $.&.).!.~.{.1 - - - - ].^./.(._.).&.$.M O I C s ; e 6 c ( , . .   ",
"  + $ - _ < 4 c f v E Q P $ Z X ).'.:.*.{.<.[.- }.A @.- - - ' |.).X Z $ P Q E v f c 4 1.- $ +   ",
"  . % - : [ ] e @ s C l Y n #.-.!.:.2.3.4.5.6.7.G 8.9.- - - - V !.-.#.n Y l C s @ e ] 0.- % .   ",
". . & ' ; 3 6 0 w E J P $ $.&.;.~.*.3.a.b.c.d.e.f.g.- - - - - - b.;.&.$.$ P J E w 0 6 s ' & . . ",
". . * ) + 4 b f v D I O i #.-.'.h.{.4.b.i.f.j.k.l.G m.- - - - n.h.*.2.#.i O I D v f b 4 ) * . . ",
". . = ! < 5 c m u C l N n X =.~.*.K 5.c.f.k.o.p.G p.q.- - - z r.s./ t...*.N l C u m c 5 ! = . . ",
". @ - ~ < 5 d @ s B H $ Z &.;.:.u.4.b.d.j.o.v.w.x.w.v.%.y.z.} A.- - - - B.$ H B s @ d 5 C.- @ . ",
"+ # - { [ ] e @ s B H $ $.D.!.h.{.a.8.e.k.p.w.E.F.E.w.p.k.e.p.- - - - - t.=.H B s @ e ] G.- # + ",
"+ # - { [ ] e ; t B H $ $.D.!.h.{.a.H.f.l.G x.F.g.F.x.G l.f.I.- - - - - n.# H B t ; e ] G.- # + ",
". @ - ~ [ ] e @ s B H $ $.D.!.h.{.a.8.e.k.p.w.E.F.E.w.7 y.J.S K.- - - - L.$ H B s @ e ] C.- @ . ",
". . = ! < 5 d @ s B H $ Z &.;.:.u.4.b.d.j.o.v.w.x.w.M.- - - N.O.P.- - ! *.$ H B s @ d 5 ! = . . ",
". . * ) < 5 c m u C l N n X =.~.*.K 5.c.f.k.o.p.G p.Q.- - - - n.*.H.a.X n N l C u m c 5 ) * . . ",
". . & ' ; 4 b f v D I O i #.-.'.h.{.4.b.i.f.j.k.l.R.- - - - - - H.'.-.#.i O I D v f b t ' & . . ",
"  . % - : 3 6 0 w E J P $ $.&.;.~.*.3.a.b.c.k.S.w.T.U.- - - - [.~.;.&.$.$ P J E w 0 6 E.- % .   ",
"  + $ - _ [ ] e @ s C l Y n #.-.!.:.2.3.4.<.V - m.V.s.- - - W.X.!.-.#.n Y l C s @ e ] Y.- $ +   ",
"  . . , ( 6 4 c f v E Q P $ Z X ).'.:.*.a.1 - - - - Z.`.1. +a.'.).X Z $ P Q E v f c e ( , . .   ",
"    . > - 2 a 6 e ; s C I O M $.&.).!.~.F.- - - - - U.{.h.~.!.).&.$.M O I C s ; e 6 <.- > .     ",
"    + ; / 1 f 5 c f w E B l Y i $.X -.;..+W.- - - - ++~.'.;.-.X $.i Y l B E w f c v 1 / ; +     ",
"      . ^ - 9 a ] e @ u E J H Y $.@+#+$+^.Y.- - - - %+=.-.&.#.Z M Y H J E u @ e ] 7 - ^ .       ",
"      + ] | 8 n 4 b 0 @ u D J l &+- - - - *+=+U V @.=.X #.$.n $ O l J D u @ 0 b # 8 | ] +       ",
"        . } - h x 5 b 0 ; u E .+- - - - - -+Z # $.$.Z n i $ Y P I B E u ; 0 b s h - } .         ",
"        . . 7 - o F 5 c 0 @ u _.- - - - - ;+$ $ $ $ $ N O P l Q C E u @ 0 c b y.- 7 . .         ",
"          + < g - y F 5 b 0 @ >+,.- - - - ,+H H H H H l I J C E s w @ 0 b b '+- g < +           ",
"            + 0 , - o w 5 b e f )+n.- - [.4.B B B B B C D E s v ; f e b s y.- , 0 +             ",
"              . 0 g - h Z 4 ] c e !+g.S i u s s t s s u v w @ f e c ] # h - g 0 .               ",
"                + < 7 - 8 %.@ 5 6 c e 0 f m @ @ ; @ @ m f 0 e c 6 v 7 8 - 7 < +                 ",
"                  + . } | - 1 2 c 4 ] 6 b c d e e e d c b 6 ] e <.1 - | } . +                   ",
"                    . . ] ^ / - ( 1.0.s 4 5 5 ] ] ] 5 5 t E.Y.( - / ^ ] . .                     ",
"                        + . ; > , - - ' ) ! C.G.G.C.! ) ' - - , > ; . +                         ",
"                            + . . $ % & * = - - - - = * & % $ . . +                             ",
"                                . + . . . . @ # # @ . . . . + .                                 ",
"                                      . . . . + + . . . .                                       "};
