/* XPM */
static char * mozicon50_xpm[] = {
"50 50 211 2",
"  	c None",
". 	c #A40000",
"+ 	c #A50303",
"@ 	c #AD1A1A",
"# 	c #AF1F1F",
"$ 	c #CB6D6D",
"% 	c #E2ADAD",
"& 	c #ECC9C9",
"* 	c #F5E4E4",
"= 	c #FEFCFC",
"- 	c #FFFFFF",
"; 	c #A40101",
"> 	c #AF1D1D",
", 	c #D28282",
"' 	c #EED0D0",
") 	c #FFFEFE",
"! 	c #F7E8E8",
"~ 	c #EDCECE",
"{ 	c #E4B4B4",
"] 	c #AA1010",
"^ 	c #D68B8B",
"/ 	c #FDF8F8",
"( 	c #EBC7C7",
"_ 	c #CF7878",
": 	c #B32A2A",
"< 	c #A60505",
"[ 	c #A50202",
"} 	c #CF7777",
"| 	c #EBC6C6",
"1 	c #CD7373",
"2 	c #F9EEEE",
"3 	c #F9EDED",
"4 	c #CE7575",
"5 	c #AD1919",
"6 	c #A50404",
"7 	c #A60606",
"8 	c #A60707",
"9 	c #A90F0F",
"0 	c #E6B8B8",
"a 	c #FCF6F6",
"b 	c #D48888",
"c 	c #A70808",
"d 	c #A70909",
"e 	c #A80A0A",
"f 	c #A80B0B",
"g 	c #AA1111",
"h 	c #B22828",
"i 	c #F2DADA",
"j 	c #E8C0C0",
"k 	c #AE1D1D",
"l 	c #A80C0C",
"m 	c #B32C2C",
"n 	c #AC1515",
"o 	c #A90E0E",
"p 	c #A90D0D",
"q 	c #AF1E1E",
"r 	c #BC4343",
"s 	c #FAF1F1",
"t 	c #DA9898",
"u 	c #C66161",
"v 	c #FDFBFB",
"w 	c #D89292",
"x 	c #AC1616",
"y 	c #AB1414",
"z 	c #AB1515",
"A 	c #AB1313",
"B 	c #AA1212",
"C 	c #FEFBFB",
"D 	c #CB6C6C",
"E 	c #BB4040",
"F 	c #D07D7D",
"G 	c #AD1818",
"H 	c #AC1717",
"I 	c #D99696",
"J 	c #F0D4D4",
"K 	c #AE1C1C",
"L 	c #AE1B1B",
"M 	c #DEA2A2",
"N 	c #F3DEDE",
"O 	c #B02323",
"P 	c #B02222",
"Q 	c #B02121",
"R 	c #C76161",
"S 	c #DD9F9F",
"T 	c #BF4B4B",
"U 	c #D17D7D",
"V 	c #B93C3C",
"W 	c #B22727",
"X 	c #B22626",
"Y 	c #B12525",
"Z 	c #B12424",
"` 	c #AF2020",
" .	c #DC9C9C",
"..	c #ECCACA",
"+.	c #D78E8E",
"@.	c #FBF2F2",
"#.	c #C65F5F",
"$.	c #B32B2B",
"%.	c #C55D5D",
"&.	c #BE4848",
"*.	c #FDFAFA",
"=.	c #F6E5E5",
"-.	c #B52F2F",
";.	c #B42E2E",
">.	c #B42C2C",
",.	c #D58989",
"'.	c #B32929",
").	c #B53131",
"!.	c #C04D4D",
"~.	c #B63232",
"{.	c #B73535",
"].	c #CA6C6C",
"^.	c #FEFEFE",
"/.	c #B83737",
"(.	c #B53030",
"_.	c #B63333",
":.	c #B73636",
"<.	c #B83939",
"[.	c #E8BDBD",
"}.	c #DB9999",
"|.	c #F4E1E1",
"1.	c #F7EAEA",
"2.	c #BB4242",
"3.	c #B93A3A",
"4.	c #BA3D3D",
"5.	c #BA3F3F",
"6.	c #C35858",
"7.	c #E4B3B3",
"8.	c #E2AFAF",
"9.	c #F0D5D5",
"0.	c #BB4141",
"a.	c #BD4646",
"b.	c #C04E4E",
"c.	c #BE4A4A",
"d.	c #BC4444",
"e.	c #BD4747",
"f.	c #BF4C4C",
"g.	c #BF4D4D",
"h.	c #D38585",
"i.	c #B93B3B",
"j.	c #C15050",
"k.	c #C15252",
"l.	c #C25353",
"m.	c #F8ECEC",
"n.	c #C55E5E",
"o.	c #B73434",
"p.	c #C15151",
"q.	c #C25454",
"r.	c #C35757",
"s.	c #FEFAFA",
"t.	c #E1ABAB",
"u.	c #E5B7B7",
"v.	c #D79090",
"w.	c #C45B5B",
"x.	c #C55C5C",
"y.	c #CB6F6F",
"z.	c #E0A8A8",
"A.	c #E2AEAE",
"B.	c #D07C7C",
"C.	c #C76363",
"D.	c #BE4949",
"E.	c #F3DCDC",
"F.	c #DFA7A7",
"G.	c #E5B5B5",
"H.	c #B42D2D",
"I.	c #C86565",
"J.	c #CD7272",
"K.	c #E0A9A9",
"L.	c #E3AFAF",
"M.	c #DDA0A0",
"N.	c #C86464",
"O.	c #D38686",
"P.	c #E7BABA",
"Q.	c #D99393",
"R.	c #F9ECEC",
"S.	c #C65E5E",
"T.	c #C96969",
"U.	c #BC4242",
"V.	c #D48686",
"W.	c #C04F4F",
"X.	c #C05050",
"Y.	c #CC7070",
"Z.	c #C45A5A",
"`.	c #FBF4F4",
" +	c #E3B1B1",
".+	c #F1D8D8",
"++	c #F3DDDD",
"@+	c #E7BCBC",
"#+	c #DB9B9B",
"$+	c #F5E2E2",
"%+	c #E5B6B6",
"&+	c #CE7676",
"*+	c #D07B7B",
"=+	c #F8EDED",
"-+	c #BF4A4A",
";+	c #F6E6E6",
">+	c #D58A8A",
",+	c #EBC8C8",
"'+	c #D89191",
")+	c #FFFDFD",
"!+	c #C66060",
"~+	c #D68C8C",
"{+	c #D28383",
"]+	c #E9C1C1",
"^+	c #DEA3A3",
"/+	c #DB9A9A",
"(+	c #FEFDFD",
"_+	c #C96868",
":+	c #F9EFEF",
"<+	c #DA9797",
"[+	c #CF7979",
"                                        . . . . . . . . . .                                         ",
"                                  . . . . . . + @ @ + . . . . . .                                   ",
"                            . . . . # $ % & * = - - = * & % $ # . . . .                             ",
"                        . ; . > , ' - - - ) ! ~ { { ~ ! ) - - - ' , > . ; .                         ",
"                      ; . ] ^ / - ) ( _ : < ; [ [ [ [ [ < : } | ) - / ^ ] . ;                       ",
"                    . + 1 2 - 3 4 5 ; + 6 < 7 7 8 8 8 7 7 < 6 + 5 4 3 - 2 1 + .                     ",
"                . . 9 0 - a b ] [ 6 7 8 c d e f f f f f e d c 8 7 6 g b a - 0 9 . .                 ",
"              . . h i - j k [ 6 7 c l m n o 9 ] ] ] ] ] 9 o p l e c 7 6 q j - i h . .               ",
"            . . r s - t 7 + 7 c e u 2 - v w x y z z z y y A B ] o p e c 7 c t - s r . .             ",
"            . h s C D ; 6 8 d l E = - - - - F 5 @ @ @ 5 G H x z A g 9 l d 8 6 D C s h .             ",
"          . 9 i - D ; 6 c e p ] I - - - - - J q q q q q k K L 5 H z A ] p e c 6 D - i 9 .           ",
"        ; + 0 - t ; 6 c f o g y M - - - - - N O O O O O P Q # k L 5 H y g o f c 6 t - 0 + ;         ",
"      . . 1 - j 7 6 c f o B z G R - - - - - S T b U V W X Y Z P ` k L G z B o f c d j - 1 . .       ",
"      ; ] 2 a k + 8 e o B z G K q  .) - - ..+.= - - @.#.$.: h X Z Q q K G z B o e 8 # a 2 ] ;       ",
"    . . ^ - b [ 7 d p g z G K # P Y T 4 %.&.*.- - - - =.-.;.>.: h Y P # K G z g p d 7 ,.- ^ . .     ",
"    . > / 3 ] 6 c l ] y G K # O X '.>.;.)._ - - - - - - !.~.).;.>.'.X O # K G y ] l c A 3 / > .     ",
"    . , - 4 [ 7 e 9 A H L q P X '.>.-.~.{.].- - - - - ^.r /.{.~.-.>.'.X P q L H A 9 e 7 4 - , .     ",
"  . . ' ) 5 6 c p g z 5 k Q Y '.>.(._.:.<.E N - - - - [.}.|.1.{ 2.(.>.'.Y Q k 5 z g p c K ) ' . .   ",
"  . # - | ; 7 e o A H L ` Z h >.-._./.3.4.5.6.& v a 7.8.- - - - 9.{.-.>.h Z ` L H A o e 7 | - # .   ",
"  . $ - } + 8 l ] z 5 k P X : ;.~.:.3.4.0.r a.&.b.c.!.*.- - - - - ].~.;.: X P k 5 z ] l 8 _ - $ .   ",
". . % - : 6 c p B x L # Z h >.).{.<.4.0.d.e.c.f.g.b.#.- - - - - - h.{.).>.h Z # L x B p c m - % . . ",
". . & ) < < d o A H K Q Y : ;.~./.i.5.r e.T b.j.k.l.k.m.- - - - ^.n.T u V : Y Q K H A o d d ) & . . ",
". . * ! ; 7 e 9 y G k P X $.-.o.<.4.0.a.c.b.p.q.r.r.r.h.s.- - - t.u.- - C v.X P k G y 9 e 7 ! * . . ",
". + = ~ [ 7 f ] y 5 q O W >.).{.3.5.r &.f.j.q.6.w.x.w.6.y.z.A.B.S - - - - - C.O q 5 y ] f 7 ~ = + . ",
". @ - { [ 8 f ] z @ q O h >.).:.i.5.d.D.g.k.r.w.#.R #.w.r.k.g.D.E.- - - - - F.O q @ z ] f 8 G.- @ . ",
". @ - { [ 8 f ] z @ q O h H.).:.i.E d.D.b.l.r.x.R I.R x.r.l.b.D.E.- - - - - F.O q @ z ] f 8 G.- @ . ",
". + = ~ [ 8 f ] z @ q O h >.).:.i.5.d.D.g.k.r.w.#.R #.w.J.K.L.B.M.- - - - - N.O q @ z ] f 8 ~ = + . ",
". . * ! [ 7 f ] y 5 q O W >.).{.3.5.r &.f.j.q.6.w.x.w.O.*.- - - t.P.- - = Q.W O q 5 y ] f 7 ! * . . ",
". . & ) < 7 e 9 y G k P X $.-.o.<.4.0.a.c.b.p.q.r.r.r.R.- - - - ^.S.l.T.U.$.X P k G y 9 e e ) & . . ",
". . % - : < d o A H K Q Y : ;.~./.i.5.r e.T b.j.k.l.C.- - - - - - V./.~.;.: Y Q K H A o d H.- % . . ",
"  . $ - } 6 c p B x L # Z h >.).{.<.4.0.d.e.c.f.j.W.X.C - - - - - Y.{.).>.h Z # L x B p c _ - $ .   ",
"  . # - | + 8 l ] z 5 k P X : ;.~.:.3.4.0.r Z.& *.`.7. +- - - - .+3.~.;.: X P k 5 z ] l 8 ( - # .   ",
"  . . ' ) 5 7 e o A H L ` Z h >.-._./.3.4.d.++- - - - @+#+$+1.%+a._.-.>.h Z ` L H A o e k ) ' . .   ",
"    . , - 4 6 c p g z 5 k Q Y '.>.(._.:.<.y.- - - - - ^.e.i.<.:._.(.>.'.Y Q k 5 z g p c &+- , .     ",
"    . > / 3 g 7 e 9 A H L q P X '.>.-.~.{.*+- - - - - - p./.{.~.-.>.'.X P q L H A 9 e n =+/ > .     ",
"    . . ^ - b 6 c l ] y G K # O X '.-+} %.T *.- - - - ;+o.~.).;.>.'.X O # K G y ] l c >+- ^ . .     ",
"      ; ] 2 a q 7 d p g z G K # P  .) - - ,+'+)+- - `.N.-.;.>.: h Y P # K G z g p d Q a 2 ] ;       ",
"      . . 1 - j c 8 e o B z G K !+- - - - - S l.~+{+r >.$.: h X Z Q q K G z B o e l ]+- 1 . .       ",
"        ; + 0 - t 6 c f o B z G ^+- - - - - N W h h h W X Y Z P ` k L G z B o f c /+- 0 + ;         ",
"          . 9 i - D 6 c f o g y t - - - - - 9.O O O O O P Q # k L 5 H y g o f c $ - i 9 .           ",
"            . h s C D 6 c e p ] d.(+- - - - , q q q q q k K L 5 H z A ] p e c $ C s h .             ",
"            . . r s - t d 8 d l 9 _+:+- v <+L 5 @ @ @ 5 G H x z A g 9 l d l /+- s r . .             ",
"              . . h i - j # 7 c e p ] (.5 A y y z z z y y A B ] o p e c Q ]+- i h . .               ",
"                . . 9 0 - a ,.A 7 c e l p o 9 ] ] ] ] ] 9 o p l e c n >+a - 0 9 . .                 ",
"                    . + 1 2 - 3 4 K 7 8 c d e f f f f f e d c 8 k &+=+- 2 1 + .                     ",
"                      ; . ] ^ / - ) ( [+m d 7 7 8 8 8 7 e H._ ( ) - / ^ ] . ;                       ",
"                        . ; . > , ' - - - ) ! ~ G.G.~ ! ) - - - ' , > . ; .                         ",
"                            . . . . # $ % & * = - - = * & % $ # . . . .                             ",
"                                  . . . . . . + @ @ + . . . . . .                                   ",
"                                        . . . . . . . . . .                                         "};
