/* XPM */
static char *abcardWindow16[] = {
/* columns rows colors chars-per-pixel */
"16 16 103 2",
"   c black",
".  c #10203D",
"X  c #153055",
"o  c #143158",
"O  c #16335D",
"+  c #183763",
"@  c #1A376A",
"#  c #183863",
"$  c #193965",
"%  c #1A3C6A",
"&  c #736852",
"*  c #66717B",
"=  c #23498B",
"-  c #224E8A",
";  c #244C8B",
":  c #244E8D",
">  c #29518D",
",  c #29538F",
"<  c #29548C",
"1  c #2F5589",
"2  c #2C5892",
"3  c #32598F",
"4  c #375A8B",
"5  c #345A8F",
"6  c #385C88",
"7  c #355F99",
"8  c #30609C",
"9  c #3263A0",
"0  c #3364A3",
"q  c #3467A5",
"w  c #3567A5",
"e  c #3468A8",
"r  c #366AAC",
"t  c #366BAD",
"y  c #376BAD",
"u  c #3A65A0",
"i  c #3F6BA3",
"p  c #3870B4",
"a  c #476585",
"s  c #446B9F",
"d  c #466C9F",
"f  c #436FA6",
"g  c #446DA1",
"h  c #476FA3",
"j  c #4770A4",
"k  c #4771A5",
"l  c #4870A5",
"z  c #4975AC",
"x  c #4C76AA",
"c  c #4978B4",
"v  c #4D7AB1",
"b  c #557FAE",
"n  c #597DAD",
"m  c #5680B6",
"M  c #AA5500",
"N  c #BD7B13",
"B  c red",
"V  c #C17C0E",
"C  c #C37D10",
"Z  c #C37E13",
"A  c #BF8010",
"S  c #B5802C",
"D  c #BE8529",
"F  c #B88535",
"G  c #9E8761",
"H  c #A7967B",
"J  c #C18217",
"K  c #C38014",
"L  c #C78111",
"P  c #C9871D",
"I  c #CA861D",
"U  c #C08425",
"Y  c #CA8920",
"T  c #CC8D26",
"R  c #D49535",
"E  c #D69735",
"W  c #D19738",
"Q  c #D49837",
"!  c #D49939",
"~  c #D89B3B",
"^  c #D89C3B",
"/  c #DA9C39",
"(  c #E3A645",
")  c #E4A94C",
"_  c #E6AD53",
"`  c #E6AC54",
"'  c #E6AD56",
"]  c #E6AE56",
"[  c #E6AF5A",
"{  c #E7B05C",
"}  c #E7B15D",
"|  c #E7B362",
" . c #E8B463",
".. c #E8B565",
"X. c #829EC0",
"o. c #9FB7D5",
"O. c #EDC383",
"+. c #EDC586",
"@. c #EEC88D",
"#. c #EFCA91",
"$. c #C1CDDB",
"%. c gray100",
"&. c None",
/* pixels */
"&.&.&.&.&.&.&.&.&.&.&.&.&.&.&.&.",
"&.&.&.&.&.&.&.A C &.&.&.&.&.&.&.",
"&.&.&.&.&.J I Q ~ P L &.&.&.&.&.",
"&.&.&.&.&.P [ ..| ' T B &.&.&.&.",
"&.&.&.&.N R | #.@.{ ~ J &.&.&.&.",
"&.&.&.&.V R } +.O.] ~ C &.&.&.&.",
"&.&.&.&.&.U ) ' _ ( D M &.&.&.&.",
"&.&.&.&.: * F W Q S & - &.&.&.&.",
"&.&.&.= w c b H G a z 7 ; &.&.&.",
"&.&.&.> v t p o.$.y w x > &.&.&.",
"&.&.&.2 f e r b X.e 9 f 3 &.&.&.",
"&.&.&.> s 0 0 w n 9 8 6 1   &.&.",
"&.&.&.@ 5 h h k l h d 4 o   &.&.",
"&.&.&.&.X + % # + $ O .   &.&.&.",
"&.&.&.&.&.&.        &.&.&.&.&.&.",
"&.&.&.&.&.&.&.&.&.&.&.&.&.&.&.&."
};
