/* XPM */
static char *abcardWindow[] = {
/* columns rows colors chars-per-pixel */
"32 32 129 2",
"   c black",
".  c #0B0B21",
"X  c #0C192C",
"o  c #10233F",
"O  c #122C4F",
"+  c #132E55",
"@  c #173765",
"#  c #183562",
"$  c #1A3C6C",
"%  c #1C4075",
"&  c #1E457C",
"*  c #494F55",
"=  c #415D7F",
"-  c #7C6C4E",
";  c #6C726F",
":  c #74766B",
">  c #1E4986",
",  c #204782",
"<  c #204985",
"1  c #214B88",
"2  c #284D82",
"3  c #25518B",
"4  c #2C5487",
"5  c #2B558B",
"6  c #2E5C96",
"7  c #2F5E98",
"8  c #30598E",
"9  c #3B5A82",
"0  c #355D92",
"q  c #305F9A",
"w  c #3B608E",
"e  c #30619D",
"r  c #3B639A",
"t  c #3D689E",
"y  c #3264A3",
"u  c #3569AA",
"i  c #3E6AA2",
"p  c #396CAC",
"a  c #376DB0",
"s  c #386EB3",
"d  c #3C70B0",
"f  c #3C72B9",
"g  c #436B9D",
"h  c #4B6F9F",
"j  c #58738E",
"k  c #426CA1",
"l  c #4B6FA1",
"z  c #4670A4",
"x  c #4671A8",
"c  c #4C71A3",
"v  c #4A75A9",
"b  c #4E78AF",
"n  c #4273B0",
"m  c #4478B7",
"M  c #4E7DB8",
"N  c #5075A4",
"B  c #5579A5",
"V  c #547CAC",
"C  c #597DAB",
"Z  c #5C83B4",
"A  c #5B85BB",
"S  c #6480A0",
"D  c #6283AC",
"F  c #688EBE",
"G  c #758DA9",
"H  c #A5690F",
"J  c #BD7C0F",
"K  c #B4791C",
"L  c #BD7B13",
"P  c #A77E38",
"I  c red",
"U  c #C2790C",
"Y  c #C17D11",
"T  c #BF800D",
"R  c #BF8010",
"E  c #BC801F",
"W  c #BB8126",
"Q  c #B28339",
"!  c #B08A4B",
"~  c #C38013",
"^  c #C5831B",
"/  c #C8861F",
"(  c #C68724",
")  c #C78924",
"_  c #CB8A23",
"`  c #CB8D2A",
"'  c #CF902C",
"]  c #D1922E",
"[  c #D39532",
"{  c #D79938",
"}  c #DB9E3D",
"|  c #FF8000",
" . c #E09929",
".. c #E09D33",
"X. c #E2A037",
"o. c #E2A13C",
"O. c #DCA041",
"+. c #DFA851",
"@. c #E3A442",
"#. c #E2A749",
"$. c #E4A84B",
"%. c #E4AC53",
"&. c #E6AF58",
"*. c #E7B05C",
"=. c #E7B362",
"-. c #E8B463",
";. c #E8B668",
":. c #E9B86C",
">. c #EABC74",
",. c #EBBE79",
"<. c #ECC07C",
"1. c #9FA6AE",
"2. c #94A5BC",
"3. c gray70",
"4. c gray72",
"5. c #88A3C5",
"6. c #94ABC7",
"7. c #B7BFCA",
"8. c #ECC383",
"9. c #EEC88D",
"0. c #EFCA91",
"q. c #F0CD97",
"w. c #F1CF9D",
"e. c #F2D5A9",
"r. c #C6D0DE",
"t. c #DBDCDC",
"y. c #E9E9E9",
"u. c gray100",
"i. c None",
/* pixels */
"i.i.i.i.i.i.i.i.i.i.i.i.i.i.i.i.i.i.i.i.i.i.i.i.i.i.i.i.i.i.i.i.",
"i.i.i.i.i.i.i.i.i.i.i.i.i.i.i.i.i.i.i.i.i.i.i.i.i.i.i.i.i.i.i.i.",
"i.i.i.i.i.i.i.i.i.i.i.i.i.i.i.i.i.i.i.i.i.i.i.i.i.i.i.i.i.i.i.i.",
"i.i.i.i.i.i.i.i.i.i.i.i.i.L U J Y Y T i.i.i.i.i.i.i.i.i.i.i.i.i.",
"i.i.i.i.i.i.i.i.i.i.i.U Y Y / ] [ _ ~ U U i.i.i.i.i.i.i.i.i.i.i.",
"i.i.i.i.i.i.i.i.i.i.I Y ^ %.;.;.*.*.%.` Y J i.i.i.i.i.i.i.i.i.i.",
"i.i.i.i.i.i.i.i.i.i.Y ^ -.;.-.;.-.%.$.%.] Y I i.i.i.i.i.i.i.i.i.",
"i.i.i.i.i.i.i.i.i.T Y +.;.;.,.8.,.;.%.o.$.^ Y i.i.i.i.i.i.i.i.i.",
"i.i.i.i.i.i.i.i.i.Y ^ ;.=.,.0.w.9.>.*.o.@.[ Y i.i.i.i.i.i.i.i.i.",
"i.i.i.i.i.i.i.i.i.Y ' -.-.<.q.e.0.,.*.@.o.} Y i.i.i.i.i.i.i.i.i.",
"i.i.i.i.i.i.i.i.i.Y ] *.&.>.8.9.8.:.&.o...} Y i.i.i.i.i.i.i.i.i.",
"i.i.i.i.i.i.i.i.i.Y / *.$.=.>.>.:.*.$...o.{ Y i.i.i.i.i.i.i.i.i.",
"i.i.i.i.i.i.i.i.i.J Y #.$.#.%.&.%.$... .$.) L i.i.i.i.i.i.i.i.i.",
"i.i.i.i.i.i.i.i.i.i.K ) $.o.o.o.o. . .$.{ L H i.i.i.i.i.i.i.i.i.",
"i.i.i.i.i.i.i.i.i.> 2 K ` $.#.o.o.o.$.{ L * > i.i.i.i.i.i.i.i.i.",
"i.i.i.i.i.i.i.i.< < x S P ^ [ { } [ _ K ; w 1 < i.i.i.i.i.i.i.i.",
"i.i.i.i.i.i.i.1 < b A s Z : ! W E Q - j g Z g > < i.i.i.i.i.i.i.",
"i.i.i.i.i.i.i.1 i A p a m v G 4.3.1.4 C y p Z 0 > i.i.i.i.i.i.i.",
"i.i.i.i.i.i.1 1 Z n a a a f M t.t.6.u p y y z V 1 > i.i.i.i.i.i.",
"i.i.i.i.i.i.1 e Z u u u p a s r.y.F u u y y e V r > i.i.i.i.i.i.",
"i.i.i.i.i.i.1 l b y u u u p p 5.t.u y y y y q z l 1 i.i.i.i.i.i.",
"i.i.i.i.i.i.< z x 7 y y y u u Z 7.y y y e e 5 g N >   i.i.i.i.i.",
"i.i.i.i.i.i.< r V 7 y e y y y i 2.y e e e q 5 0 c >   i.i.i.i.i.",
"i.i.i.i.i.i.% 1 c z q e e e y e D e e q 7 6 8 = 0 &   i.i.i.i.i.",
"i.i.i.i.i.i.. < 4 C v k i t i t k t i g g c B 9 < O   i.i.i.i.i.",
"i.i.i.i.i.i.  + < 5 r h N N N N c N c c h r 8 < @     i.i.i.i.i.",
"i.i.i.i.i.i.i.  X $ % & < < < < < < 1 < , $ # o     i.i.i.i.i.i.",
"i.i.i.i.i.i.i.i.                                i.i.i.i.i.i.i.i.",
"i.i.i.i.i.i.i.i.i.i.i.                      i.i.i.i.i.i.i.i.i.i.",
"i.i.i.i.i.i.i.i.i.i.i.i.i.i.i.i.i.i.i.i.i.i.i.i.i.i.i.i.i.i.i.i.",
"i.i.i.i.i.i.i.i.i.i.i.i.i.i.i.i.i.i.i.i.i.i.i.i.i.i.i.i.i.i.i.i.",
"i.i.i.i.i.i.i.i.i.i.i.i.i.i.i.i.i.i.i.i.i.i.i.i.i.i.i.i.i.i.i.i."
};
