/* XPM */
static char *addressbookWindow16[] = {
/* columns rows colors chars-per-pixel */
"16 16 125 2",
"   c black",
".  c #727E0A",
"X  c #785977",
"o  c #5A7AA4",
"O  c #6F6384",
"+  c #617296",
"@  c #6C7CA0",
"#  c #67837F",
"$  c #698373",
"%  c #7A88A7",
"&  c #7B8AA8",
"*  c #7E8CA8",
"=  c #7E8CAB",
"-  c #CC0000",
";  c #EF2929",
":  c #9DB029",
">  c #A2AB7B",
",  c #EDD400",
"<  c #FCE94F",
"1  c #8F9E86",
"2  c #808DA9",
"3  c #808DAA",
"4  c #818FAB",
"5  c #828EAA",
"6  c #8290AC",
"7  c #8390AC",
"8  c #8B96AE",
"9  c #8F9FB8",
"0  c #9E9DBF",
"q  c #99A580",
"w  c #AA83AB",
"e  c #AB82AA",
"r  c #A986AD",
"t  c #A887AE",
"y  c #A987AE",
"u  c #AA84AC",
"i  c #AA85AC",
"p  c #AC80A8",
"a  c #AC80A9",
"s  c #AC82AA",
"d  c #A889AF",
"f  c #A789B0",
"g  c #A78AB1",
"h  c #A78BB1",
"j  c #A58DB3",
"k  c #A889B0",
"l  c #AC8BB1",
"z  c #A491B6",
"x  c #AB92B6",
"c  c #A7ADBD",
"v  c #A9ACB8",
"b  c #A8AEBC",
"n  c #ABB0BE",
"m  c #ABB1BE",
"M  c #ACB1BE",
"N  c #B5B5B6",
"B  c #B7B7B7",
"V  c #B9B9B9",
"C  c #9D9EC0",
"Z  c #9D9FC1",
"A  c #9E9DC0",
"S  c #95AFCD",
"D  c #95AFCE",
"F  c #96AECC",
"G  c #9BA2C3",
"H  c #9BA3C4",
"J  c #99A7C7",
"K  c #9AA4C5",
"L  c #9AA5C5",
"P  c #9AA6C6",
"I  c #9CA1C3",
"U  c #9CA2C3",
"Y  c #9FABC3",
"T  c #95B0CE",
"R  c #95B1CF",
"E  c #9DB7D2",
"W  c #AAACC9",
"Q  c #AFB5C2",
"!  c #A9B3CF",
"~  c #AFBAC9",
"^  c #A5BDD7",
"/  c #A7BFD8",
"(  c #A8B8D0",
")  c #A9B8D0",
"_  c #A9B9D0",
"`  c #A9B9D1",
"'  c #A8BFD8",
"]  c #B4B9C4",
"[  c #A9C1D9",
"{  c #ACC3DA",
"}  c #B1C0D6",
"|  c #B4C9DE",
" . c #BCC8D9",
".. c #B7CAE0",
"X. c #B7CBE0",
"o. c #B8CBE0",
"O. c #B9CBE0",
"+. c #BACDE2",
"@. c #BFCCE0",
"#. c #C1C1C3",
"$. c #DDDDDD",
"%. c gray87",
"&. c #C3CFE0",
"*. c #C3D0E2",
"=. c #C0D2E4",
"-. c #C6D6E7",
";. c #C7D7E8",
":. c #CBD7E5",
">. c #CBD8E7",
",. c #CCDAEA",
"<. c #CEDAE8",
"1. c #CEDBE8",
"2. c #CEDBE9",
"3. c #CFDBE9",
"4. c #CFDCE9",
"5. c #CFDCEA",
"6. c #CFDCEC",
"7. c #D0DCEA",
"8. c #D1DEEB",
"9. c #D2DEEB",
"0. c #D3DFEC",
"q. c #D7E3F0",
"w. c #D7E4F0",
"e. c #D8E4F1",
"r. c None",
/* pixels */
"r.o o o o o o o o o o o o o r.r.",
"o @ 9.-.+.| ^ ^ ^ [ / / E 1 , < ",
"o  .9.&.5.[ L d p i A R { 1 < , ",
"o &.9.' ,.! i H R J i H { q < , ",
"o :.4.! 4.x Z 0 w w Y d { > < , ",
"o 9.8.` ,.i F i C t S p { $ : . ",
"o q.<.! ,.s R p G t G d [ $ : . ",
"o e.<.! ,.d L z d j p 9 [ % : . ",
"o w.4.` ,.W t J S T R R { O ; - ",
"o w.4.@.,.[ L h p d R R { O ; - ",
"o w.0.8.;.@.| +.| |  .+.+.O ; - ",
"o >.= 7 * * % & 2 6 7 = + X - - ",
"o Y N B B B B B B B V ~ o o r.r.",
"o 9  .$.$.$.$.$.%.%.%.] o o r.r.",
"o o 8 v Q m m m m m M m v o r.r.",
"  o o o o o o o o o o o o o r.r."
};
