/* XPM */
static char *addressbookWindow[] = {
/* columns rows colors chars-per-pixel */
"32 32 139 2",
"   c black",
".  c #1F2B45",
"X  c #222D4A",
"o  c #253252",
"O  c #2B395F",
"+  c #2F3E67",
"@  c #24496D",
"#  c #354576",
"$  c #344679",
"%  c #364876",
"&  c #364878",
"*  c #394771",
"=  c #394A79",
"-  c #3E517D",
";  c #543C61",
":  c #55643E",
">  c #717D0A",
",  c #4A5C6C",
"<  c #495A78",
"1  c #546664",
"2  c #445783",
"3  c #475885",
"4  c #4C5983",
"5  c #50618A",
"6  c #5A6A93",
"7  c #617294",
"8  c #637399",
"9  c #6A799D",
"0  c #746182",
"q  c #717E9E",
"w  c #6E7EA2",
"e  c #757FA0",
"r  c #74800A",
"t  c #7B8717",
"y  c #738183",
"u  c #7682A1",
"i  c #7984A2",
"p  c #7987AA",
"a  c #7A8AAB",
"s  c #873B55",
"d  c #9D374C",
"f  c #B03444",
"g  c #C40000",
"h  c #C60D03",
"j  c #CD0101",
"k  c #C0313E",
"l  c #DA2726",
"z  c #D22E35",
"x  c #F03434",
"c  c #E44646",
"v  c #E95757",
"b  c #F14040",
"n  c #F24B4B",
"m  c #F25757",
"M  c #ED6767",
"N  c #F36363",
"B  c #F17575",
"V  c #AD7FA8",
"C  c #879329",
"Z  c #95A13D",
"A  c #AAA670",
"S  c #B9B161",
"D  c #BDCA6F",
"F  c #C5A200",
"G  c #CDB632",
"H  c #C3B751",
"J  c #C3CE7B",
"K  c #828DA7",
"L  c #848EA9",
"P  c #8790AD",
"I  c #8A95AD",
"U  c #8391B2",
"Y  c #8A98B6",
"T  c #919FBB",
"R  c #9F9BBF",
"E  c #96A2BB",
"W  c #AB82AA",
"Q  c #A888AF",
"!  c #A68CB3",
"~  c #A98AB0",
"^  c #A490B5",
"/  c #A295BA",
"(  c #A099BC",
")  c #AB91B5",
"_  c #AA98BB",
"`  c #9E9EC0",
"'  c #96ADCD",
"]  c #9BA2C4",
"[  c #9AA7C8",
"{  c #98AACA",
"}  c #95B0CE",
"|  c #97B1D0",
" . c #99B3D1",
".. c #A29EC1",
"X. c #A99FC0",
"o. c #A0A1C3",
"O. c #A2AEC7",
"+. c #A4AEC9",
"@. c #AAB7CE",
"#. c #A6B6D2",
"$. c #A5BCD6",
"%. c #AEBCD2",
"&. c #A9BFD8",
"*. c #B2BFD4",
"=. c #ADC2DA",
"-. c #B7C4D3",
";. c #B2C6DC",
":. c #B5C8DD",
">. c #BAC4D3",
",. c #B8C5D8",
"<. c #BBC8D6",
"1. c #BACADD",
"2. c #BCCDE0",
"3. c #BFD0E2",
"4. c #EB8C8F",
"5. c #F48686",
"6. c #F69191",
"7. c #C7D288",
"8. c #C9D389",
"9. c #C3C5C9",
"0. c #CCCCCC",
"q. c #C0CDDC",
"w. c #CDCFD6",
"e. c #D0D0D0",
"r. c #DADBDE",
"t. c #C4D3E3",
"y. c #C8D6E5",
"u. c #C9D7E8",
"i. c #CAD8E6",
"p. c #CCD9E8",
"a. c #D6DAE1",
"s. c #D1DDEA",
"d. c #D6E2EE",
"f. c #D8E3EF",
"g. c #D9E4F0",
"h. c #E1E1E1",
"j. c #EAEBEE",
"k. c #F5F5F5",
"l. c None",
/* pixels */
"l.l.l.l.l.l.l.l.l.l.l.l.l.l.l.l.l.l.l.l.l.l.l.l.l.l.l.l.l.l.l.l.",
"l.l.l.l.$ = & & & & & = & & & & & & & & & & = & & & = l.l.l.l.l.",
"l.l.l.l.= p y.t.3.;.=.=.=.=.;.;.:.2.1.2.3.3.3.3.y.2.- l.l.l.l.l.",
"l.l.l.l.& t.p.-.;.&.| } | | | | ' ' ' | | |  .} | 1.5 F F l.l.l.",
"l.l.l.l.& s.i.<.;.$.| } ' ' ' ' } } ' ' ' | } } } 1.7 G F l.l.l.",
"l.l.l.@ & f.i.<.;.&.| } ' ' R ! ! ! ^ ] | ' } } } ;.i H F l.l.l.",
"l.l.l.* < f.y.<.;.&.| } R W ! R ] ] R W ^ ' ' ' } =.I S F l.l.l.",
"l.l.l.$ 2 f.i.1.;.&.| ! ! [ } } ' ' ' ' ^ Q ' ' ' =.E A F l.l.l.",
"l.l.l.$ 5 g.i.1.;.&.( Q ' } } [ [ ' ' ' ' Q R ' ' =.O.: r r l.l.",
"l.l.l.= 6 g.y.t.;.#.W [ } ' ! V W W ! ^ ' ] W ' |  .=.y 7.> l.l.",
"l.l.l.& 8 f.t.t.1.o.^ } } ! ~ ' ' ] V ^ ' ' V ' }  .:.1 8.t r l.",
"l.l.l.& e f.t.y.;.) ( } } V ] } ' ' Q R ' ' V ' } | q., J C r l.",
"l.l.l.$ p f.t.y.;.Q ] | { V ' } } ' Q R } [ Q ' ' | y.< D Z > l.",
"l.l.l.& U g.t.i.,.) ..} } V ` } } ' W R ' Q R ' ' ' t.4 j j h g ",
"l.l.l.& Y f.y.u.;._ _ } } ! W ( R W W ^ Q ^ } } ' | 2.6 4.6.l j ",
"l.l.l.$ E f.t.i.;.+.W { } } R ! ^ [ ^ ^ [ } } } | ' 2.q z N c j ",
"l.l.l.& E f.1.u.;.&.^ ! ' ' } } ' ' } ' ' | } } } } :.P k m v j ",
"l.l.l.& O.f.2.u.;.&.' ^ Q R ' } ' ' R W ' } } } } } =.E f n M j ",
"l.l.l.= %.f.<.u.;.&. .' R Q W W W W ^ ] } } } } } } =.O.d b B j ",
"l.l.l.= -.f.<.t.;.$. .} ' ' [ [ { ' } ' } } } } } }  .=.s x 5.j ",
"l.l.l.= -.f.-.t.;.$.} } } } } } ' ' } } } } ' } } } #.,.0 6.6.j ",
"l.l.l.= q.f.>.t.;.&. .} } ' } } } } } } } } | ' } }  .t., j j j ",
"l.l.  & t.f.s.i.3.1.=.=.;.;.;.<.:.2.3.3.3.3.i.i.y.y.p.p.=   l.l.",
"l.l.  & p.t.a 9 u u i i i i i u i i i i i i i i L L q 7 =     l.",
"l.l.  & s.9 I 0.0.0.0.0.0.9.0.0.0.0.0.0.0.0.0.0.0.K 6 $ $     l.",
"l.    = ,.6 9.0.e.e.0.0.0.0.e.e.0.e.0.0.0.e.0.e.9.6 6 $ X     l.",
"l.    & %.6 w.h.h.a.h.h.h.h.h.h.h.h.h.h.h.h.h.h.r.7 6 < o     l.",
"l.l.  % O.9 p r.j.j.j.j.j.j.j.j.j.j.j.k.k.k.k.k.k.*.w 2 O     l.",
"l.l.  X - a 6 6 6 6 6 6 6 6 6 6 6 6 6 6 6 6 6 6 6 6 6 3 +     l.",
"l.l.    X # = & & & & & & & # & & & # # & & # # # $ # = o   l.l.",
"l.l.l.                                                    l.l.l.",
"l.l.l.l.                                                l.l.l.l."
};
