/* XPM */
static char *messengerWindow[] = {
/* columns rows colors chars-per-pixel */
"32 32 193 2",
"   c black",
".  c gray38",
"X  c #656460",
"o  c #6A6A63",
"O  c #6C6B67",
"+  c #6E6B67",
"@  c #6D6C69",
"#  c #6E6D68",
"$  c #6E6D6A",
"%  c #706F6C",
"&  c #716F6C",
"*  c #71706D",
"=  c #72716D",
"-  c #72726F",
";  c #73736F",
":  c #76766F",
">  c #757471",
",  c #767670",
"<  c #777770",
"1  c #767673",
"2  c #777672",
"3  c #797673",
"4  c #797873",
"5  c #7A7A75",
"6  c #7C7A77",
"7  c #7C7B77",
"8  c #7E7D79",
"9  c #81807A",
"0  c #81807C",
"q  c #82817C",
"w  c #83837E",
"e  c #84837D",
"r  c #84837E",
"t  c #808080",
"y  c #858480",
"u  c #868580",
"i  c #868582",
"p  c #848484",
"a  c #888681",
"s  c #888781",
"d  c #898883",
"f  c #8A8983",
"g  c #8B8A84",
"h  c #8B8A85",
"j  c #8D8884",
"k  c #8D8D85",
"l  c #8D8C87",
"z  c #8F8D89",
"x  c #8E8E88",
"c  c #8F8F88",
"v  c #908F89",
"b  c #908F8B",
"n  c #92918B",
"m  c #929289",
"M  c #92918F",
"N  c #93938E",
"B  c #96928B",
"V  c #94938D",
"C  c #96938C",
"Z  c #95958E",
"A  c #97968F",
"S  c #969590",
"D  c #989791",
"F  c #9A9993",
"G  c #9A9997",
"H  c #9C9B94",
"J  c #9C9A96",
"K  c #9D9C95",
"L  c #9E9C96",
"P  c gray60",
"I  c #9F9D98",
"U  c #9EA59E",
"Y  c #9EA69E",
"T  c #9FA69F",
"R  c #A09F9A",
"E  c #A2A19A",
"W  c #A2A29E",
"Q  c #A7A6A0",
"!  c #A3A9A3",
"~  c #A8A6A1",
"^  c #ACACA5",
"/  c #ADADA8",
"(  c #AAB1AA",
")  c #ABB1AB",
"_  c #ACB1AC",
"`  c #AEB4AE",
"'  c #B0B6B0",
"]  c #B4B4B4",
"[  c #B6B6B6",
"{  c #B2B8B2",
"}  c #B7BCB7",
"|  c gray73",
" . c #BBBBBB",
".. c #BCBCBC",
"X. c gray74",
"o. c gray",
"O. c #BCC1BC",
"+. c #BCC2BC",
"@. c #BFC4BF",
"#. c #C0C0C0",
"$. c #C1C1C1",
"%. c gray76",
"&. c #C3C3C3",
"*. c #C1C4C1",
"=. c #C3C6C3",
"-. c gray77",
";. c #C5C5C5",
":. c #C6C6C6",
">. c gray78",
",. c #C8C8C8",
"<. c #C9C9C8",
"1. c #CACACA",
"2. c #C8CCC8",
"3. c #C9CDC9",
"4. c #CACECA",
"5. c #CBCECB",
"6. c gray80",
"7. c #CDCDCD",
"8. c #CECECE",
"9. c gray81",
"0. c #CCD0CC",
"q. c #D0D0D0",
"w. c gray82",
"e. c #D2D2D2",
"r. c LightGray",
"t. c #D0D4D0",
"y. c #D3D5D3",
"u. c gray83",
"i. c #D5D5D5",
"p. c #D4D6D4",
"a. c #D5D7D5",
"s. c gray84",
"d. c #D7D7D7",
"f. c #D6D8D6",
"g. c #D7D9D7",
"h. c #D7DAD7",
"j. c #D8D8D8",
"k. c gray85",
"l. c #D8DAD8",
"z. c #DADADA",
"x. c gray86",
"c. c gainsboro",
"v. c #DCDDDC",
"b. c #DDDDDD",
"n. c #DCDEDC",
"m. c #DCDFDC",
"M. c gray87",
"N. c #DEDFDE",
"B. c #DFDFDF",
"V. c #DEE0DE",
"C. c gray88",
"Z. c #E1E1E1",
"A. c #E1E2E1",
"S. c #E2E2E2",
"D. c #E2E3E2",
"F. c gray89",
"G. c #E4E4E4",
"H. c gray90",
"J. c #E6E6E6",
"K. c #E7E7E6",
"L. c #E7E7E7",
"P. c #E7E9E7",
"I. c gray91",
"U. c #E9E9E9",
"Y. c #E9EAE9",
"T. c #EAEAEA",
"R. c gray92",
"E. c #EAECEA",
"W. c #ECECEC",
"Q. c gray93",
"!. c #EEEEEE",
"~. c #EFEFEF",
"^. c #EFF0EF",
"/. c gray94",
"(. c #F1F1F1",
"). c gray95",
"_. c #F3F3F2",
"`. c #F3F3F3",
"'. c #F3F4F3",
"]. c #F4F4F4",
"[. c #F5F4F4",
"{. c gray96",
"}. c #F6F6F6",
"|. c gray97",
" X c #F8F8F8",
".X c #F9F9F9",
"XX c gray98",
"oX c #FBFBFB",
"OX c gray99",
"+X c #FDFDFD",
"@X c #FEFEFE",
"#X c gray100",
"$X c None",
/* pixels */
"$X$X$X$X$X$X$X$X$X$X$X$X$X$X$X$X$X$X$X$X$X$X$X$X$X$X$X$X$X$X$X$X",
"$X$X$X$X$X$X$X$X$X$X$Xp z g f u u w w w : $X$X$X$X$X$X$X$X$X$X$X",
"$X$X$X$X$X$X$X$X$X$Xj S ).OXOXoXOXOXoX).l 2 $X$X$X$X$X$X$X$X$X$X",
"$X$X$X$X$X$X$X$X$Xk W XX{.~.~.U.U.H.H.).XXJ 3 $X$X$X$X$X$X$X$X$X",
"$X$X$X$X$X$X$X$Xz ~ oX[.R.U.L.H.H.D.D.C.L.|.J 2 $X$X$X$X$X$X$X$X",
"$X$X$X$X$X$X$XC / oX).U.L.J.H.G.D.C.C.c.x.H.{.G - $X$X$X$X$X$X$X",
"$X$X$X$X$X$XB ^ oX/.L.L.H.G.D.C.c.c.x.k.j.j.D./.N + $X$X$X$X$X$X",
"$X$X$X$X$XN Q XX/.L.H.G.S.C.C.c.c.x.k.j.u.u.e.C.R.u o $X$X$X$X$X",
"$X$X$X$Xv E XX).H.F.F.C.C.c.c.x.k.j.s.r.e.e.q.q.D.G.6 . $X$X$X$X",
"$X$X$XP R [.).G.F.D.M.M.x.x.k.j.s.r.r.e.q.5...[ -.S.x.1 t $X$X$X",
"$X$X$XR L.{.G.D.C.M.x.x.k.k.u.u.r.q.,.] :.G.|.OXo.,.L.1.> $X$X$X",
"$X$X$XL oXD.D.c.c.x.k.k.j.u.5. .#.x.[.OXoXoX|.XXR.%.5.R.& $X$X$X",
"$X$X$XL OXD.c.x.x.j.u.%...r.~.OXOXoXoX|.{.{.{.[.XX..1.~.- $X$X$X",
"$X$X$XL OXV.c.5...8.L.XXOXOXXX{.|.{.[.[.[.).).).).L.r.).- $X$X$X",
"$X$X$XL OX{.5.{.OXOXoXXX{.{.[.).).).).)./.~./.~.~.5.U./.& $X$X$X",
"$X$X$XL OX{.).5.[.{.[.).{.).).~.!./.!.R.~.R.R.U.,.G.U.~.& $X$X$X",
"$X$X$XH OX).).U.} ~./.~.~.~.~.~.R.~.T.T.T.U.U.:.x.T.T.W.& $X$X$X",
"$X$X$XH OX).).~.D.' L.U.L.U.H.U.T.L.L.J.J.J.=.e.U.J.J.W.& $X$X$X",
"$X$X$XJ OX/.~.R.~.a.) x.x.c.x.x.x.x.c.x.n.%.:.J.J.J.J.W.& $X$X$X",
"$X$X$XJ OX~.~.~.~.R.3.) *.U U U U T T T ! | J.H.J.J.S.W.& $X$X$X",
"$X$X$XL OX~.E.~.U.R.U.' ` ~.oX{.).T.G.B.=./ n.H.G.G.G.R.& $X$X$X",
"$X$X$XH oXR.R.U.U.U.+.5.XXR.L.L.J.J.H.H.H.h.{ h.S.S.S.T.& $X$X$X",
"$X$X$XJ XXU.U.U.F.+.E.).L.H.H.H.H.H.H.H.H.S.Z.O.u.D.D.T.$ $X$X$X",
"$X$X$XH XXU.U.c.t.XXU.L.H.H.H.G.H.S.S.S.Z.Z.Z.Z.3.u.D.T.@ $X$X$X",
"$X$X$XJ  XH.V.P.).H.H.H.H.H.F.F.D.D.C.D.C.D.D.D.D.u.a.R.+ $X$X$X",
"$X$X$XL |.D._.R.H.H.H.F.D.D.D.M.C.C.D.D.C.C.C.D.D.D.x.U.O $X$X$X",
"$X$X  F XX{.'._.).).).).~.~.~.~.R.R.R.R.R.R.U.T.U.U.~.~.$     $X",
"$X    A S A A v v l h h a a r r 0 0 8 6 5 3 2 2 - - $ $ X       ",
"$X                                                              ",
"$X$X$X                                                      $X$X",
"$X$X$X$X$X$X$X$X$X$X$X$X$X$X$X$X$X$X$X$X$X$X$X$X$X$X$X$X$X$X$X$X",
"$X$X$X$X$X$X$X$X$X$X$X$X$X$X$X$X$X$X$X$X$X$X$X$X$X$X$X$X$X$X$X$X"
};
