/* XPM */
static char *messengerWindow16[] = {
/* columns rows colors chars-per-pixel */
"16 16 60 1",
"  c black",
". c #888A85",
"X c #908D87",
"o c #95948E",
"O c #929191",
"+ c #A1A09A",
"@ c #A5A29D",
"# c #A1A0A0",
"$ c #A6A5A1",
"% c #A8A7A1",
"& c #AAA9A7",
"* c #AFACA9",
"= c #AFAEAC",
"- c #B1AEAA",
"; c #B2B1AE",
": c #B6B4B3",
"> c #B9B8B3",
", c #BCBBB7",
"< c #BEBDB9",
"1 c gray74",
"2 c #C1BFBA",
"3 c #C5C5C5",
"4 c #C6C5C5",
"5 c #C9C7C1",
"6 c #C9C7C4",
"7 c #CDCCC9",
"8 c #CECDCA",
"9 c #CFCECA",
"0 c #CFCECC",
"q c gray81",
"w c #D9D6D0",
"e c #D8D8D8",
"r c #DBDAD9",
"t c #E2E2DF",
"y c #E1E1E1",
"u c #E4E4E3",
"i c #E6E5E2",
"p c #E9E7E2",
"a c #EBE8E3",
"s c #EAEAE9",
"d c gray92",
"f c #ECECEB",
"g c #F0EFED",
"h c #F2F0EC",
"j c gray94",
"k c #F3F3F2",
"l c #F7F5F1",
"z c #F7F5F2",
"x c #F7F5F3",
"c c gray96",
"v c gray97",
"b c #F8F6F2",
"n c #F9F7F3",
"m c #F9F8F4",
"M c #FAF8F5",
"N c #FAF9F6",
"B c #FBFAF7",
"V c #FBFBF8",
"C c gray100",
"Z c None",
/* pixels */
"ZZZZZZZZZZZZZZZZ",
"ZZZZZZZZZZZZZZZZ",
"ZZZZZ.......ZZZZ",
"ZZZZ..CCCCC..ZZZ",
"ZZZ..Cw52-+C..ZZ",
"ZZ..Cw@<7731C..Z",
"ZZ.u>ordvCC3-d.Z",
"ZZ.v=vCCCCde7v.Z",
"ZZ.Cu&ddyeq$kC.Z",
"ZZ.CVtO::,#zxC.Z",
"ZZ.CVg@VBV.ngC.Z",
"ZZ.CB;VVBmB,pC.Z",
"ZZ.C6Vxmxmza9C.Z",
"ZZ.hCCCCCCCCCh.Z",
"ZZ.............Z",
"ZZZZZZZZZZZZZZZZ"
};
