/* XPM */
static char *msgcomposeWindow[] = {
/* columns rows colors chars-per-pixel */
"32 32 117 2",
"   c black",
".  c #553900",
"X  c #55470E",
"o  c #5D410C",
"O  c #62450D",
"+  c #624611",
"@  c #644914",
"#  c #6A4D15",
"$  c #6A4F19",
"%  c #6C511B",
"&  c #71541B",
"*  c #77591F",
"=  c #785819",
"-  c #6C5323",
";  c #695428",
":  c #725A29",
">  c #735D32",
",  c #7B6334",
"<  c #7F683B",
"1  c #424242",
"2  c #4B4B4B",
"3  c #555555",
"4  c #5D5D5D",
"5  c #696969",
"6  c gray45",
"7  c #7B7B7B",
"8  c #844411",
"9  c #82562B",
"0  c #886F00",
"q  c #86611A",
"w  c #8B6417",
"e  c #897001",
"r  c #8B7408",
"t  c #916717",
"y  c #976C18",
"u  c #917905",
"i  c #9D7019",
"p  c #816D44",
"a  c #8A754B",
"s  c #877B62",
"d  c #887C63",
"f  c #BC7857",
"g  c #DF1E17",
"h  c #F83E3C",
"j  c #FF6666",
"k  c #8E813D",
"l  c #90833E",
"z  c #BC851F",
"x  c #938641",
"c  c #958843",
"v  c #8D836F",
"b  c #8B867C",
"n  c #96886B",
"m  c #938A79",
"M  c #9C9078",
"N  c #A98541",
"B  c #AC8844",
"V  c #AF875F",
"C  c #B18D48",
"Z  c #B5904C",
"A  c #B99550",
"S  c #B98771",
"D  c #B09773",
"F  c #C48B20",
"G  c #C98F22",
"H  c #CC9226",
"J  c #CC942A",
"K  c #D4A246",
"L  c #D4A54C",
"P  c #D6A852",
"I  c #D8AA58",
"U  c #C7B178",
"Y  c #CCB172",
"T  c #DBB56D",
"R  c #F0DC47",
"E  c #FCE94F",
"W  c #838383",
"Q  c #8B8C8B",
"!  c #958E82",
"~  c #93908A",
"^  c #9E9380",
"/  c #939393",
"(  c #999999",
")  c #ACA087",
"_  c #A0A19D",
"`  c #ABA69C",
"'  c #B0A48C",
"]  c #A4A4A4",
"[  c #A9AAA7",
"{  c #ACACAB",
"}  c #B0AEAB",
"|  c #B2B2AE",
" . c #BFB6A6",
".. c #B1B1B1",
"X. c #B7B8B6",
"o. c #BBBCBA",
"O. c #C4BCAD",
"+. c #DBB0B0",
"@. c #F5B9B6",
"#. c #D6C186",
"$. c #D2C28D",
"%. c #C9C1B3",
"&. c #CDC7BA",
"*. c #E4D6A4",
"=. c #C3C3C3",
"-. c #CBCBCB",
";. c #D4CFC4",
":. c #D4D4D4",
">. c #D7D8D7",
",. c #DADADA",
"<. c #E5CBC6",
"1. c #E4E4E4",
"2. c #EAE8E4",
"3. c #EBEBEB",
"4. c #F3F3F3",
"5. c #F8F8F8",
"6. c None",
/* pixels */
"6.6.6.6.6.6.6.6.6.6.6.6.6.6.6.6.6.6.6.6.6.6.6.6.6.6.6.6.6.6.6.6.",
"6.6.6.6.6.6.6.6.6.6.6.6.6.6.6.6.6.6.6.6.6.6.6.6.6.6.6.6.6.6.6.6.",
"6.6.6.6.6.6.u e u u r u u r u u e u u e u u e u 6.6.6.6.6.6.6.6.",
"6.6./ ( ( / e R 0 0 R 0 e R 0 e R e e R e 0 R 0 / / / ( 6.6.6.6.",
"6.6./ X.-.-.0 E 0 0 E 0 0 E 0 0 E e 0 E 0 0 E 0 o.o.[ / 6.6.6.6.",
"6.6./ =.| _ 0 R 0 0 R 0 0 R 0 0 R e e R 0 0 R 0 Q ] ../ 6.6.6.6.",
"6.6./ =.| _ c r c c r c c r c x r l l e l k e x Q _ X./ 6.6.6.6.",
"6.6.( >.5.5.4.4.4.4.4.4.4.4.4.4.4.4.4.4.4.4.4.3.3.4.>.( 6.6.6.6.",
"6.6.( 2.5.5.5.5.5.5.5.5.5.5.5.5.5.5.5.5.4.5.5.5.5.5.1.( 6.6.6.6.",
"6.6.( 3.5...X...X...X.X.X.......................| 4.3.( 6.6.6.6.",
"6.6.( 3.5.5.5.5.4.5.5.5.4.4.5.5.5.4.4.4.4.4.4.4.4.4.3.( 6.6.6.6.",
"6.6.( 4.5.....................{ ..............{ ..4.4.b O + O o ",
"6.6./ 5.4.5.4.5.4.4.4.5.4.4.4.4.4.4.4.4.4.4.4.4.4.;.a @ V @.f O ",
"6.W ( 5.4...........{ ..{ ..4.4.4.4.4.3.4.4.3.&.p % D 2.@.j h o ",
"6./ ] 5.4.4.4.4.4.4.4.3.4.4.4.4.4.4.4.3.4.O.< % N T I <.+.g 8 O ",
"6.Q [ 5.4.4.4.3.4.3.4.4.4.3.4.3.3.3.4.O., & B T P J G S 9 O O . ",
"6./ ..4.3...{ ..{ { { { { { { { { m - & C T P J F i = + ; X 6.6.",
"6./ X.4.4.3.4.3.3.4.3.3.4.3.3. .: * C T L G F y = % ' ../ 6.6.6.",
"6./ =.4.3.{ { { ..{ { [ [ { d @ A T L H F t @ ; d 1.4.=./ 6.6.6.",
"6./ -.5.3.3.3.3.3.3.3.3.3.) $ $.*.H z w # > O.3.3.3.3.-./ 6.6.6.",
"6.Q -.4.3.] [ ] [ [ [ [ d % Y #.U q + > ! [ ] ] [ 1.3.-.Q 6.6.6.",
"6.W :.3.3.3.3.3.3.1.,.n . @ @ @ - p [ =.-.:.:.1.1.1.3.:.Q 6.6.6.",
"6.W :.3.3.] [ ] ] ] / M ^ ` { { { { ..o.O.-.:.1.1.1.3.:.W 6.6.6.",
"6.7 ,.3.1.3.3.1.3.3.1.1.1.,.>.:.:.>.>.,.1.1.1.1.1.1.1.>.W 6.6.6.",
"6.6 1.1.3.3.1.1.1.1.1.2.1.1.1.1.1.1.1.1.1.1.1.1.1.1.1.,.6 6.6.6.",
"6.5 1.2.1.1.1.1.1.1.1.1.1.1.1.1.1.1.1.1.1.1.,.1.1.1.1.1.5 6.6.6.",
"6.4 4.4.5.5.5.5.5.5.5.4.5.5.5.5.4.4.4.5.4.4.5.5.4.5.4.5.4     6.",
"  2 :.] ] ] ] ] ] ] ] ] ] ] ] ] ] ] ] ] ] ] ] ] ] ] ] -.3       ",
"  1 -.-.-.-.-.-.-.-.-.-.-.-.-.-.-.-.-.-.-.-.-.-.-.-.-.=.3       ",
"  2 1 1 1 1 1 1 1 1 1 1 1 1 1 1 1 1 1 1 1 1 1 1 2 1 1 2 1       ",
"6.                                                          6.6.",
"6.6.6.6.                                                6.6.6.6."
};
